<svg id="Capa_1" enable-background="new 0 0 512 512" height="512" viewBox="0 0 512 512" width="512" xmlns="http://www.w3.org/2000/svg"><g><g><path d="m370 76v60h92v140c-8.872 0-82.861 0-92 0v160h132c0-14.674 0-345.307 0-360z" fill="#ff7b79"/><path d="m390 136h72v140h-72z" fill="#eefaff"/><path d="m330 256v60h-20v120h-40v-120h-20v-60c0-22.09 17.91-40 40-40s40 17.91 40 40z" fill="#b3f1ff"/><circle cx="290" cy="176" fill="#fce8d0" r="20"/><path d="m210 256v60h-20v120h-40v-120h-20v-60c0-22.09 17.91-40 40-40s40 17.91 40 40z" fill="#ffda8f"/><circle cx="170" cy="176" fill="#fce8d0" r="20"/><path d="m90 256v60h-20v120h-40v-120h-20v-60c0-22.09 17.91-40 40-40s40 17.91 40 40z" fill="#ff7b79"/><circle cx="50" cy="176" fill="#fce8d0" r="20"/></g><g><path d="m80 176c0-16.542-13.458-30-30-30s-30 13.458-30 30 13.458 30 30 30 30-13.458 30-30zm-30 10c-5.514 0-10-4.486-10-10s4.486-10 10-10 10 4.486 10 10-4.486 10-10 10z"/><path d="m10 326h10v110c0 5.522 4.477 10 10 10h40c5.523 0 10-4.478 10-10v-110h10c5.523 0 10-4.478 10-10v-60c0-27.57-22.43-50-50-50s-50 22.43-50 50v60c0 5.522 4.477 10 10 10zm10-70c0-16.542 13.458-30 30-30s30 13.458 30 30v50h-10c-5.523 0-10 4.478-10 10v110h-20v-110c0-5.522-4.477-10-10-10h-10z"/><path d="m140 176c0 16.542 13.458 30 30 30s30-13.458 30-30-13.458-30-30-30-30 13.458-30 30zm40 0c0 5.514-4.486 10-10 10s-10-4.486-10-10 4.486-10 10-10 10 4.486 10 10z"/><path d="m120 256v60c0 5.522 4.477 10 10 10h10v110c0 5.522 4.477 10 10 10h40c5.523 0 10-4.478 10-10v-110h10c5.523 0 10-4.478 10-10v-60c0-27.57-22.43-50-50-50s-50 22.43-50 50zm20 0c0-16.542 13.458-30 30-30s30 13.458 30 30v50h-10c-5.523 0-10 4.478-10 10v110h-20v-110c0-5.522-4.477-10-10-10h-10z"/><path d="m320 176c0-16.542-13.458-30-30-30s-30 13.458-30 30 13.458 30 30 30 30-13.458 30-30zm-30 10c-5.514 0-10-4.486-10-10s4.486-10 10-10 10 4.486 10 10-4.486 10-10 10z"/><path d="m240 256v60c0 5.522 4.477 10 10 10h10v110c0 5.522 4.477 10 10 10h40c5.523 0 10-4.478 10-10v-110h10c5.523 0 10-4.478 10-10v-60c0-27.57-22.43-50-50-50s-50 22.43-50 50zm20 0c0-16.542 13.458-30 30-30s30 13.458 30 30v50h-10c-5.523 0-10 4.478-10 10v110h-20v-110c0-5.522-4.477-10-10-10h-10z"/><path d="m410 366h52c5.523 0 10-4.478 10-10s-4.477-10-10-10h-52c-5.523 0-10 4.478-10 10s4.477 10 10 10z"/><path d="m77.071 68.929c-3.905-3.904-10.237-3.904-14.143 0l-20 20c-3.905 3.905-3.905 10.237 0 14.143l20 20c3.906 3.905 10.237 3.905 14.143 0 3.905-3.905 3.905-10.237 0-14.143l-2.929-2.929h51.715l-2.929 2.929c-3.905 3.905-3.905 10.237 0 14.143 3.906 3.905 10.237 3.905 14.143 0l20-20c3.905-3.905 3.905-10.237 0-14.143l-20-20c-3.905-3.904-10.237-3.904-14.143 0-3.905 3.905-3.905 10.237 0 14.143l2.93 2.928h-51.716l2.929-2.929c3.906-3.905 3.906-10.237 0-14.142z"/><path d="m217.071 68.929c-3.905-3.904-10.237-3.904-14.143 0l-20 20c-3.905 3.905-3.905 10.237 0 14.143l20 20c3.906 3.905 10.237 3.905 14.143 0 3.905-3.905 3.905-10.237 0-14.143l-2.929-2.929h51.715l-2.929 2.929c-3.905 3.905-3.905 10.237 0 14.143 3.906 3.905 10.237 3.905 14.143 0l20-20c3.905-3.905 3.905-10.237 0-14.143l-20-20c-3.905-3.904-10.237-3.904-14.143 0-3.905 3.905-3.905 10.237 0 14.143l2.93 2.928h-51.715l2.929-2.929c3.905-3.905 3.905-10.237-.001-14.142z"/><circle cx="502" cy="196" r="10"/><path d="m502 66h-132c-5.523 0-10 4.478-10 10v60c0 5.522 4.477 10 10 10h10v120h-10c-5.523 0-10 4.478-10 10v160c0 5.522 4.477 10 10 10h132c5.523 0 10-4.478 10-10v-195c0-5.522-4.477-10-10-10s-10 4.478-10 10v65h-112v-20h82c5.523 0 10-4.478 10-10v-140c0-5.522-4.477-10-10-10h-82v-40h112v65c0 5.522 4.477 10 10 10s10-4.478 10-10v-75c0-5.522-4.477-10-10-10zm-10 260v100h-112v-100zm-40-60h-52v-120h52z"/></g></g></svg>